<?xml version="1.0" encoding="UTF-8"?>
<svg id="katman_2" data-name="katman 2" xmlns="http://www.w3.org/2000/svg" viewBox="0 0 5.77 7.8">
  <defs>
    <style>
      .cls-1 {
        fill: #1d1d1b;
      }
    </style>
  </defs>
  <g id="katman_1" data-name="katman 1">
    <path class="cls-1" d="M4.99,3.9h.78c0,1.01-.34,1.88-1.02,2.62-.68.74-1.51,1.16-2.49,1.26-.13.01-.27.02-.4.02s-.26,0-.38-.02v-3.88l-1.48.54v-.63l1.48-.53v-.35l-1.48.54v-.62l1.48-.54V0h.78v2.03l2.38-.87v.62l-2.38.87v.34l2.38-.86v.62l-2.38.87v3.37c.77-.09,1.42-.43,1.94-1.02s.79-1.28.79-2.07Z"/>
  </g>
</svg>