<?xml version="1.0" encoding="UTF-8"?>
<svg id="katman_2" data-name="katman 2" xmlns="http://www.w3.org/2000/svg" viewBox="0 0 15 20.28">
  <defs>
    <style>
      .cls-1 {
        fill: #1d1d1b;
      }
    </style>
  </defs>
  <g id="katman_1" data-name="katman 1">
    <path class="cls-1" d="M12.97,10.14h2.03c0,2.62-.88,4.89-2.64,6.81-1.76,1.92-3.92,3.02-6.49,3.28-.35.04-.69.05-1.03.05s-.67-.02-1-.05v-10.09l-3.85,1.4v-1.64l3.85-1.38v-.91l-3.85,1.4v-1.61l3.85-1.4V0h2.03v5.28l6.19-2.26v1.61l-6.19,2.26v.88l6.19-2.24v1.61l-6.19,2.26v8.76c2.01-.24,3.7-1.13,5.06-2.65,1.36-1.52,2.04-3.32,2.04-5.38Z"/>
  </g>
</svg>